<svg width="29" height="24" viewBox="0 0 29 24" fill="none" xmlns="http://www.w3.org/2000/svg">
<path d="M28 3.75H25M28 12H20.5M28 20.25H20.5M7 23V14.1467C7 13.8607 7 13.7177 6.96937 13.5808C6.9422 13.4596 6.89727 13.3421 6.83578 13.2317C6.76647 13.1074 6.66901 12.9958 6.47409 12.7723L1.52592 7.10261C1.33099 6.87927 1.23353 6.76759 1.16422 6.64323C1.10273 6.5329 1.0578 6.41546 1.03063 6.29411C1 6.15732 1 6.01431 1 5.72828V3.2C1 2.42993 1 2.04489 1.16348 1.75076C1.3073 1.49204 1.53678 1.2817 1.81902 1.14986C2.13988 1 2.55992 1 3.4 1H16.6C17.4401 1 17.8602 1 18.181 1.14986C18.4633 1.2817 18.6926 1.49204 18.8365 1.75076C19 2.04489 19 2.42993 19 3.2V5.72828C19 6.01431 19 6.15732 18.9694 6.29411C18.9422 6.41546 18.8973 6.5329 18.8358 6.64323C18.7665 6.76759 18.6689 6.87927 18.4741 7.10261L13.5259 12.7723C13.3311 12.9958 13.2335 13.1074 13.1642 13.2317C13.1027 13.3421 13.0578 13.4596 13.0306 13.5808C13 13.7177 13 13.8607 13 14.1467V18.875L7 23Z" stroke="black" stroke-width="2" stroke-linecap="round" stroke-linejoin="round"/>
</svg>
