<svg width="32" height="16" viewBox="0 0 32 16" fill="none" xmlns="http://www.w3.org/2000/svg">
<path d="M9.72767 1H5.90949C5.45762 1 5.09131 1.36631 5.09131 1.81818V13.8182C5.09131 14.2701 5.45762 14.6364 5.90949 14.6364H9.72767C10.1795 14.6364 10.5459 14.2701 10.5459 13.8182V1.81818C10.5459 1.36631 10.1795 1 9.72767 1Z" stroke="black" stroke-width="2" stroke-linecap="round" stroke-linejoin="round"/>
<path d="M26.091 1H22.2728C21.8209 1 21.4546 1.36631 21.4546 1.81818V13.8182C21.4546 14.2701 21.8209 14.6364 22.2728 14.6364H26.091C26.5429 14.6364 26.9091 14.2701 26.9091 13.8182V1.81818C26.9091 1.36631 26.5429 1 26.091 1Z" stroke="black" stroke-width="2" stroke-linecap="round" stroke-linejoin="round"/>
<path d="M1 11.0912V4.54572C1 4.09385 1.36631 3.72754 1.81818 3.72754H4.27273C4.7246 3.72754 5.09091 4.09385 5.09091 4.54572V11.0912C5.09091 11.5431 4.7246 11.9094 4.27273 11.9094H1.81818C1.36631 11.9094 1 11.5431 1 11.0912Z" stroke="black" stroke-width="2" stroke-linecap="round" stroke-linejoin="round"/>
<path d="M30.9996 11.0912V4.54572C30.9996 4.09385 30.6333 3.72754 30.1814 3.72754H27.7269C27.275 3.72754 26.9087 4.09385 26.9087 4.54572V11.0912C26.9087 11.5431 27.275 11.9094 27.7269 11.9094H30.1814C30.6333 11.9094 30.9996 11.5431 30.9996 11.0912Z" stroke="black" stroke-width="2" stroke-linecap="round" stroke-linejoin="round"/>
<path d="M10.5454 7.81836H21.4545" stroke="black" stroke-width="2" stroke-linecap="round" stroke-linejoin="round"/>
</svg>
