<svg width="20" height="18" viewBox="0 0 20 18" fill="none" xmlns="http://www.w3.org/2000/svg">
<path d="M6.16012 8.1305L7.70552 3.11655L11.0102 10.6267L11.7414 8.08972H19.6974C19.8891 7.47013 20 6.75681 20 6.01846C20 5.71796 19.9814 5.42248 19.9463 5.132L19.9499 5.16706C19.7489 3.64527 18.9254 0.802032 15.5899 0.148816C15.1728 0.0615296 14.6898 0.00787007 14.1962 0H14.1897H14.0917C12.4705 0.0286184 11.0188 0.729055 9.99785 1.83373L9.99428 1.8373C8.96902 0.72977 7.51735 0.0300494 5.90184 0H5.89611H5.79667C5.29656 0.00787007 4.81434 0.0615296 4.34643 0.157401L4.39651 0.148816C2.00401 0.66681 0.20963 2.68441 0.037204 5.14989L0.0364885 5.16706C0.0135938 5.38814 0 5.6457 0 5.90542C0 6.69958 0.122344 7.46441 0.34986 8.18344L0.335551 8.12978L6.16012 8.1305Z" fill="black"/>
<path d="M12.6283 9.26749L11.2439 14.0911L7.89983 6.49365L7.03483 9.30971H0.780273C1.8456 11.6679 4.32896 14.627 9.99112 17.1698C15.7255 14.5941 18.2118 11.6314 19.2635 9.27107L12.6283 9.26749Z" fill="black"/>
</svg>
