<svg width="25" height="31" viewBox="0 0 25 31" fill="none" xmlns="http://www.w3.org/2000/svg">
<path d="M16.3462 5.76923C17.9393 5.76923 19.2308 4.47776 19.2308 2.88462C19.2308 1.29147 17.9393 0 16.3462 0C14.753 0 13.4615 1.29147 13.4615 2.88462C13.4615 4.47776 14.753 5.76923 16.3462 5.76923ZM6.83233 19.0787L5.94291 21.1532H1.92308C0.861178 21.1532 0 22.0144 0 23.0763C0 24.1382 0.861178 24.9994 1.92308 24.9994H6.57752C7.73437 24.9994 8.77584 24.3119 9.22836 23.2512L9.75661 22.018L9.11538 21.6394C8.07452 21.0246 7.30889 20.1148 6.83233 19.0787ZM23.0769 13.4609H20.4309L18.8648 10.2608C18.1136 8.72536 16.7344 7.60276 15.152 7.19952L10.8804 5.92909C9.17969 5.52043 7.40865 5.89603 6.02224 6.95913L3.63822 8.78666C2.79507 9.43269 2.63522 10.6394 3.28245 11.4826C3.92969 12.3257 5.13582 12.4838 5.97837 11.8383L8.36358 10.0108C8.82452 9.65685 9.41166 9.53005 9.88221 9.64183L10.7656 9.90445L8.51442 15.1562C7.75601 16.9279 8.4357 19.003 10.095 19.9826L15.2019 22.9976L13.5511 28.2698C13.2338 29.2831 13.7981 30.3618 14.8113 30.6791C15.003 30.7392 15.1965 30.768 15.387 30.768C16.2049 30.768 16.9633 30.241 17.2212 29.4189L19.1226 23.3456C19.4778 22.0974 18.9489 20.7566 17.8221 20.0769L14.1418 17.905L16.0234 13.2007L17.2416 15.6905C17.7224 16.6725 18.7392 17.3065 19.8323 17.3065H23.0769C24.1388 17.3065 25 16.4453 25 15.3834C25 14.3215 24.1388 13.4609 23.0769 13.4609Z" fill="black"/>
</svg>
