<svg width="26" height="25" viewBox="0 0 26 25" fill="none" xmlns="http://www.w3.org/2000/svg">
<circle cx="12.9648" cy="12.5" r="12" fill="#CBD2D9" stroke="black"/>
<path d="M15.1538 7.81261C16.046 7.81261 16.7692 7.183 16.7692 6.4063C16.7692 5.62961 16.046 5 15.1538 5C14.2617 5 13.5385 5.62961 13.5385 6.4063C13.5385 7.183 14.2617 7.81261 15.1538 7.81261ZM9.82611 14.3012L9.32803 15.3126H7.07692C6.48226 15.3126 6 15.7324 6 16.2501C6 16.7678 6.48226 17.1877 7.07692 17.1877H9.68341C10.3313 17.1877 10.9145 16.8525 11.1679 16.3354L11.4637 15.7342L11.1046 15.5496C10.5217 15.2499 10.093 14.8063 9.82611 14.3012ZM18.9231 11.5625H17.4413L16.5643 10.0023C16.1436 9.25378 15.3713 8.70649 14.4851 8.5099L12.093 7.89054C11.1406 7.69132 10.1488 7.87443 9.37245 8.39271L8.0374 9.28366C7.56524 9.59862 7.47572 10.1869 7.83817 10.598C8.20063 11.009 8.87606 11.0861 9.34788 10.7714L10.6836 9.88046C10.9417 9.7079 11.2705 9.64608 11.534 9.70057L12.0288 9.82861L10.7681 12.389C10.3434 13.2527 10.724 14.2643 11.6532 14.7419L14.5131 16.2118L13.5886 18.7821C13.4109 19.276 13.7269 19.8019 14.2943 19.9566C14.4017 19.9859 14.51 20 14.6167 20C15.0748 20 15.4995 19.7431 15.6438 19.3423L16.7087 16.3814C16.9075 15.7729 16.6114 15.1192 15.9804 14.7879L13.9194 13.7291L14.9731 11.4356L15.6553 12.6494C15.9245 13.1281 16.4939 13.4372 17.1061 13.4372H18.9231C19.5177 13.4372 20 13.0174 20 12.4997C20 11.982 19.5177 11.5625 18.9231 11.5625Z" fill="black"/>
</svg>
