<svg width="25" height="25" viewBox="0 0 25 25" fill="none" xmlns="http://www.w3.org/2000/svg">
<circle cx="12.5" cy="12.5" r="12" fill="#CBD2D9" stroke="black"/>
<path d="M15.8689 4C15.7259 4 15.3147 4.18645 15.3147 4.18645L11.0863 6.32425C10.5232 6.54851 10.3001 7.44667 10.6389 7.89518L11.8743 9.68744L6.82073 12.2702L9.36364 14.1793L12.548 12.2702L15.7298 14.1793L17.0051 12.904L13.1869 7.81309L16.4408 5.86671C17.1135 5.52791 17.0051 4.97007 17.0051 4.63127C16.9999 4.36413 16.5465 4 15.8689 4ZM18.5935 7.81818C17.3623 7.81818 16.3636 8.81435 16.3636 10.0455C16.3636 11.2766 17.3623 12.2753 18.5935 12.2753C19.8246 12.2753 20.8207 11.2766 20.8207 10.0455C20.8207 8.81435 19.8244 7.81818 18.5935 7.81818ZM6.18182 14.1818L3 16.0909V18L6.18182 16.0909L9.36364 18L12.548 16.0909L15.7298 18L18.2727 16.0909L22.0909 18V16.0909L18.2727 14.1818L15.7298 16.0909L12.548 14.1818L9.36364 16.0909L6.18182 14.1818Z" fill="black"/>
</svg>
