<svg width="26" height="25" viewBox="0 0 26 25" fill="none" xmlns="http://www.w3.org/2000/svg">
<circle cx="12.9648" cy="12.5" r="12" fill="#CBD2D9" stroke="black"/>
<path d="M9.78492 13.156L10.9853 9.35968L13.5523 15.046L14.1202 13.1251H20.3001C20.449 12.656 20.5352 12.1159 20.5352 11.5568C20.5352 11.3293 20.5207 11.1056 20.4935 10.8857L20.4963 10.9122C20.3401 9.76 19.7004 7.60725 17.1096 7.11268C16.7856 7.04659 16.4105 7.00596 16.027 7H16.022H15.9459C14.6865 7.02167 13.559 7.552 12.7659 8.3884L12.7631 8.39111C11.9668 7.55254 10.8392 7.02275 9.5843 7H9.57985H9.5026C9.11414 7.00596 8.73957 7.04659 8.37612 7.11918L8.41502 7.11268C6.55663 7.50487 5.16283 9.03249 5.0289 10.8992L5.02834 10.9122C5.01056 11.0796 5 11.2746 5 11.4713C5 12.0726 5.09503 12.6516 5.27176 13.1961L5.26064 13.1554L9.78492 13.156Z" fill="black"/>
<path d="M14.809 14.0172L13.7337 17.6694L11.1361 11.917L10.4642 14.0492H5.60596C6.43345 15.8346 8.36243 18.0751 12.7606 20.0004C17.2148 18.0502 19.146 15.807 19.9629 14.0199L14.809 14.0172Z" fill="black"/>
</svg>
