<svg width="25" height="25" viewBox="0 0 25 25" fill="none" xmlns="http://www.w3.org/2000/svg">
<circle cx="12.5" cy="12.5" r="12" fill="#CBD2D9" stroke="black"/>
<path d="M8.65461 9H6.61825C6.37725 9 6.18188 9.19537 6.18188 9.43636V15.8364C6.18188 16.0774 6.37725 16.2727 6.61825 16.2727H8.65461C8.89561 16.2727 9.09098 16.0774 9.09098 15.8364V9.43636C9.09098 9.19537 8.89561 9 8.65461 9Z" stroke="black" stroke-linecap="round" stroke-linejoin="round"/>
<path d="M18.3819 9H16.3455C16.1045 9 15.9092 9.19537 15.9092 9.43636V15.8364C15.9092 16.0774 16.1045 16.2727 16.3455 16.2727H18.3819C18.6229 16.2727 18.8183 16.0774 18.8183 15.8364V9.43636C18.8183 9.19537 18.6229 9 18.3819 9Z" stroke="black" stroke-linecap="round" stroke-linejoin="round"/>
<path d="M4 14.3824V10.8914C4 10.6504 4.19537 10.4551 4.43636 10.4551H5.74545C5.98645 10.4551 6.18182 10.6504 6.18182 10.8914V14.3824C6.18182 14.6234 5.98645 14.8187 5.74545 14.8187H4.43636C4.19537 14.8187 4 14.6234 4 14.3824Z" stroke="black" stroke-linecap="round" stroke-linejoin="round"/>
<path d="M21.0002 14.3824V10.8914C21.0002 10.6504 20.8048 10.4551 20.5638 10.4551H19.2547C19.0137 10.4551 18.8184 10.6504 18.8184 10.8914V14.3824C18.8184 14.6234 19.0137 14.8187 19.2547 14.8187H20.5638C20.8048 14.8187 21.0002 14.6234 21.0002 14.3824Z" stroke="black" stroke-linecap="round" stroke-linejoin="round"/>
<path d="M9.09106 12.6367H15.5911" stroke="black" stroke-linecap="round" stroke-linejoin="round"/>
</svg>
