<svg width="35" height="26" viewBox="0 0 35 26" fill="none" xmlns="http://www.w3.org/2000/svg">
<path d="M23.593 0C23.3308 0 22.5769 0.341834 22.5769 0.341834L14.8248 4.26113C13.7926 4.67227 13.3835 6.3189 14.0047 7.14117L16.2696 10.427L7.00467 15.162L11.6667 18.662L17.5047 15.162L23.338 18.662L25.676 16.324L18.676 6.99067L24.6414 3.4223C25.8748 2.80117 25.676 1.77847 25.676 1.15733C25.6664 0.667567 24.8353 0 23.593 0ZM28.588 7C26.331 7 24.5 8.8263 24.5 11.0833C24.5 13.3404 26.331 15.1713 28.588 15.1713C30.845 15.1713 32.6713 13.3404 32.6713 11.0833C32.6713 8.8263 30.8448 7 28.588 7ZM5.83333 18.6667L0 22.1667V25.6667L5.83333 22.1667L11.6667 25.6667L17.5047 22.1667L23.338 25.6667L28 22.1667L35 25.6667V22.1667L28 18.6667L23.338 22.1667L17.5047 18.6667L11.6667 22.1667L5.83333 18.6667Z" fill="black"/>
</svg>
